HIERARCHY
ROOT hip
{
  OFFSET 0 90.174 2.4664
  CHANNELS 6 Xposition Yposition Zposition Zrotation Xrotation Yrotation
  JOINT abdomen
  {
    OFFSET 0 -1.186 -1.5018
    CHANNELS 6 Xposition Yposition Zposition Zrotation Xrotation Yrotation
    JOINT abdomen2
    {
      OFFSET 0 9.964 0.2134
      CHANNELS 6 Xposition Yposition Zposition Zrotation Xrotation Yrotation
      JOINT chest
      {
        OFFSET 0 13.134 -3.2573
        CHANNELS 6 Xposition Yposition Zposition Zrotation Xrotation Yrotation
        JOINT neck
        {
          OFFSET 0 20.686 -1.6905
          CHANNELS 6 Xposition Yposition Zposition Zrotation Xrotation Yrotation
          JOINT head
          {
            OFFSET 0 7.238 -0.1237
            CHANNELS 6 Xposition Yposition Zposition Zrotation Xrotation Yrotation
            End Site
            {
              OFFSET 0 0 0
            }
          }
        }
        JOINT lCollar
        {
          OFFSET 1.7069 20.075 5.0056
          CHANNELS 6 Xposition Yposition Zposition Zrotation Xrotation Yrotation
          JOINT lShldr
          {
            OFFSET 13.6458 -0.047 -4.849
            CHANNELS 6 Xposition Yposition Zposition Zrotation Xrotation Yrotation
            JOINT lForeArm
            {
              OFFSET 28.3255 -0.9759 2.2888
              CHANNELS 6 Xposition Yposition Zposition Zrotation Xrotation Yrotation
              JOINT lHand
              {
                OFFSET 22.1583 -0.53 10.8316
                CHANNELS 6 Xposition Yposition Zposition Zrotation Xrotation Yrotation
                JOINT lThumb1
                {
                  OFFSET 0.786 0.112 2.5817
                  CHANNELS 6 Xposition Yposition Zposition Zrotation Xrotation Yrotation
                  JOINT lThumb2
                  {
                    OFFSET 0.3601 -0.878 4.2331
                    CHANNELS 6 Xposition Yposition Zposition Zrotation Xrotation Yrotation
                    JOINT lThumb2_End
                    {
                      OFFSET 1.8127 -1.216 2.2227
                      CHANNELS 6 Xposition Yposition Zposition Zrotation Xrotation Yrotation
                      End Site
                      {
                        OFFSET 0.0181 -0.0122 0.0222
                      }
                    }
                  }
                }
                JOINT lCarpal1
                {
                  OFFSET 0.9571 1.114 1.7695
                  CHANNELS 6 Xposition Yposition Zposition Zrotation Xrotation Yrotation
                  JOINT lIndex1
                  {
                    OFFSET 4.1246 0.487 4.1451
                    CHANNELS 6 Xposition Yposition Zposition Zrotation Xrotation Yrotation
                    JOINT lIndex2
                    {
                      OFFSET 3.4052 -1.454 2.7682
                      CHANNELS 6 Xposition Yposition Zposition Zrotation Xrotation Yrotation
                      JOINT lIndex2_End
                      {
                        OFFSET 1.4531 -1.795 1.2713
                        CHANNELS 6 Xposition Yposition Zposition Zrotation Xrotation Yrotation
                        End Site
                        {
                          OFFSET 0.0145 -0.0179 0.0127
                        }
                      }
                    }
                  }
                  JOINT lMid1
                  {
                    OFFSET 5.6954 0.21 2.1184
                    CHANNELS 6 Xposition Yposition Zposition Zrotation Xrotation Yrotation
                    JOINT lMid2
                    {
                      OFFSET 3.9766 -1.54 2.3863
                      CHANNELS 6 Xposition Yposition Zposition Zrotation Xrotation Yrotation
                      JOINT lMid2_End
                      {
                        OFFSET 1.4042 -1.926 1.125
                        CHANNELS 6 Xposition Yposition Zposition Zrotation Xrotation Yrotation
                        End Site
                        {
                          OFFSET 0.014 -0.0193 0.0113
                        }
                      }
                    }
                  }
                }
                JOINT lCarpal2
                {
                  OFFSET 2.0956 0.66 -0.3894
                  CHANNELS 6 Xposition Yposition Zposition Zrotation Xrotation Yrotation
                  JOINT lRing1
                  {
                    OFFSET 5.0395 -0.09 2.4971
                    CHANNELS 6 Xposition Yposition Zposition Zrotation Xrotation Yrotation
                    JOINT lRing2
                    {
                      OFFSET 3.7921 -1.552 1.4806
                      CHANNELS 6 Xposition Yposition Zposition Zrotation Xrotation Yrotation
                      JOINT lRing2_End
                      {
                        OFFSET 1.4655 -1.808 0.9609
                        CHANNELS 6 Xposition Yposition Zposition Zrotation Xrotation Yrotation
                        End Site
                        {
                          OFFSET 0.0147 -0.0181 0.0096
                        }
                      }
                    }
                  }
                  JOINT lPinky1
                  {
                    OFFSET 4.9141 -1.269 0.3591
                    CHANNELS 6 Xposition Yposition Zposition Zrotation Xrotation Yrotation
                    JOINT lPinky2
                    {
                      OFFSET 3.1477 -1.685 0.8462
                      CHANNELS 6 Xposition Yposition Zposition Zrotation Xrotation Yrotation
                      JOINT lPinky2_End
                      {
                        OFFSET 0.8055 -1.585 0.7955
                        CHANNELS 6 Xposition Yposition Zposition Zrotation Xrotation Yrotation
                        End Site
                        {
                          OFFSET 0.0081 -0.0158 0.008
                        }
                      }
                    }
                  }
                }
              }
            }
          }
        }
        JOINT rCollar
        {
          OFFSET -1.7069 20.075 5.0056
          CHANNELS 6 Xposition Yposition Zposition Zrotation Xrotation Yrotation
          JOINT rShldr
          {
            OFFSET -13.6458 -0.047 -4.849
            CHANNELS 6 Xposition Yposition Zposition Zrotation Xrotation Yrotation
            JOINT rForeArm
            {
              OFFSET -28.3255 -0.9759 2.2888
              CHANNELS 6 Xposition Yposition Zposition Zrotation Xrotation Yrotation
              JOINT rHand
              {
                OFFSET -22.1583 -0.53 10.8316
                CHANNELS 6 Xposition Yposition Zposition Zrotation Xrotation Yrotation
                JOINT rThumb1
                {
                  OFFSET -0.786 0.112 2.5817
                  CHANNELS 6 Xposition Yposition Zposition Zrotation Xrotation Yrotation
                  JOINT rThumb2
                  {
                    OFFSET -0.3601 -0.878 4.2331
                    CHANNELS 6 Xposition Yposition Zposition Zrotation Xrotation Yrotation
                    JOINT rThumb2_End
                    {
                      OFFSET -1.8127 -1.216 2.2227
                      CHANNELS 6 Xposition Yposition Zposition Zrotation Xrotation Yrotation
                      End Site
                      {
                        OFFSET -0.0181 -0.0122 0.0222
                      }
                    }
                  }
                }
                JOINT rCarpal1
                {
                  OFFSET -0.9571 1.114 1.7695
                  CHANNELS 6 Xposition Yposition Zposition Zrotation Xrotation Yrotation
                  JOINT rIndex1
                  {
                    OFFSET -4.1246 0.487 4.1451
                    CHANNELS 6 Xposition Yposition Zposition Zrotation Xrotation Yrotation
                    JOINT rIndex2
                    {
                      OFFSET -3.4052 -1.454 2.7682
                      CHANNELS 6 Xposition Yposition Zposition Zrotation Xrotation Yrotation
                      JOINT rIndex2_End
                      {
                        OFFSET -1.4531 -1.795 1.2713
                        CHANNELS 6 Xposition Yposition Zposition Zrotation Xrotation Yrotation
                        End Site
                        {
                          OFFSET -0.0145 -0.018 0.0127
                        }
                      }
                    }
                  }
                  JOINT rMid1
                  {
                    OFFSET -5.6954 0.21 2.1184
                    CHANNELS 6 Xposition Yposition Zposition Zrotation Xrotation Yrotation
                    JOINT rMid2
                    {
                      OFFSET -3.9766 -1.54 2.3863
                      CHANNELS 6 Xposition Yposition Zposition Zrotation Xrotation Yrotation
                      JOINT rMid2_End
                      {
                        OFFSET -1.4042 -1.926 1.125
                        CHANNELS 6 Xposition Yposition Zposition Zrotation Xrotation Yrotation
                        End Site
                        {
                          OFFSET -0.014 -0.0193 0.0113
                        }
                      }
                    }
                  }
                }
                JOINT rCarpal2
                {
                  OFFSET -2.0956 0.66 -0.3894
                  CHANNELS 6 Xposition Yposition Zposition Zrotation Xrotation Yrotation
                  JOINT rRing1
                  {
                    OFFSET -5.0395 -0.09 2.4971
                    CHANNELS 6 Xposition Yposition Zposition Zrotation Xrotation Yrotation
                    JOINT rRing2
                    {
                      OFFSET -3.7921 -1.552 1.4806
                      CHANNELS 6 Xposition Yposition Zposition Zrotation Xrotation Yrotation
                      JOINT rRing2_End
                      {
                        OFFSET -1.4655 -1.808 0.9609
                        CHANNELS 6 Xposition Yposition Zposition Zrotation Xrotation Yrotation
                        End Site
                        {
                          OFFSET -0.0147 -0.0181 0.0096
                        }
                      }
                    }
                  }
                  JOINT rPinky1
                  {
                    OFFSET -4.9141 -1.269 0.3592
                    CHANNELS 6 Xposition Yposition Zposition Zrotation Xrotation Yrotation
                    JOINT rPinky2
                    {
                      OFFSET -3.1477 -1.685 0.8462
                      CHANNELS 6 Xposition Yposition Zposition Zrotation Xrotation Yrotation
                      JOINT rPinky2_End
                      {
                        OFFSET -0.8055 -1.585 0.7955
                        CHANNELS 6 Xposition Yposition Zposition Zrotation Xrotation Yrotation
                        End Site
                        {
                          OFFSET -0.0081 -0.0158 0.008
                        }
                      }
                    }
                  }
                }
              }
            }
          }
        }
      }
    }
  }
  JOINT lThigh
  {
    OFFSET 8.367 -8.2066 0.5982
    CHANNELS 6 Xposition Yposition Zposition Zrotation Xrotation Yrotation
    JOINT lShin
    {
      OFFSET 2.1923 -43.463 -0.4932
      CHANNELS 6 Xposition Yposition Zposition Zrotation Xrotation Yrotation
      JOINT lFoot
      {
        OFFSET 0.7333 -45.8593 -2.6451
        CHANNELS 6 Xposition Yposition Zposition Zrotation Xrotation Yrotation
        End Site
        {
          OFFSET 2.6618 -4.2699 12.3931
        }
      }
    }
  }
  JOINT rThigh
  {
    OFFSET -8.367 -8.2066 0.5982
    CHANNELS 6 Xposition Yposition Zposition Zrotation Xrotation Yrotation
    JOINT rShin
    {
      OFFSET -2.1923 -43.463 -0.4931
      CHANNELS 6 Xposition Yposition Zposition Zrotation Xrotation Yrotation
      JOINT rFoot
      {
        OFFSET -0.7333 -45.8593 -2.6451
        CHANNELS 6 Xposition Yposition Zposition Zrotation Xrotation Yrotation
        End Site
        {
          OFFSET -2.6618 -4.2699 12.3931
        }
      }
    }
  }
}
MOTION
Frames:	4
Frame Time:	0.0333333
1.41284 88.8207 -17.0748 0 10.9226 -0 0 -1.186 -1.5018 -0.212223 3.1938 -0.387291 2.22045e-016 9.964 0.2134 -0.403725 6.3889 -0.764498 -1.66533e-016 13.134 -3.2573 -0.403724 6.38889 -0.764497 -4.44089e-016 20.686 -1.6905 3.72481e-005 12.0903 -4.79931e-006 0 7.238 -0.1237 5.55768e-007 8.46101 -8.25418e-007 1.7069 20.075 5.0056 -9.63397 5.11587 -17.8142 13.6458 -0.047 -4.849 -55.4401 -4.93773 -6.348 28.3255 -0.9759 2.2888 2.67007 5.78839 -27.7112 22.1583 -0.53 10.8316 9.87044 -9.26168 3.16842 0.786 0.112 2.5817 1.66422e-007 -6.90311e-007 -4.7119e-007 0.3601 -0.878 4.2331 8.3211e-008 -3.45155e-007 -2.35595e-007 1.8127 -1.216 2.2227 8.3211e-008 -3.45155e-007 -2.35595e-007 0.9571 1.114 1.7695 3.97569e-015 3.18055e-015 -1.59028e-015 4.1246 0.487 4.1451 1.66422e-007 -6.90311e-007 -4.7119e-007 3.4052 -1.454 2.7682 8.3211e-008 -3.45155e-007 -2.35595e-007 1.4531 -1.795 1.2713 8.3211e-008 -3.45155e-007 -2.35595e-007 5.6954 0.21 2.1184 1.66422e-007 -6.90311e-007 -4.7119e-007 3.9766 -1.54 2.3863 8.3211e-008 -3.45155e-007 -2.35595e-007 1.4042 -1.926 1.125 8.3211e-008 -3.45155e-007 -2.35595e-007 2.0956 0.66 -0.3894 3.97569e-015 3.18055e-015 -1.59028e-015 5.0395 -0.09 2.4971 1.66422e-007 -6.90311e-007 -4.7119e-007 3.7921 -1.552 1.4806 8.3211e-008 -3.45155e-007 -2.35595e-007 1.4655 -1.808 0.9609 8.3211e-008 -3.45155e-007 -2.35595e-007 4.9141 -1.269 0.3591 1.66422e-007 -6.90311e-007 -4.7119e-007 3.1477 -1.685 0.8462 8.3211e-008 -3.45155e-007 -2.35595e-007 0.8055 -1.585 0.7955 8.3211e-008 -3.45155e-007 -2.35595e-007 -1.7069 20.075 5.0056 9.36916 5.04787 17.5812 -13.6458 -0.047 -4.849 55.588 -4.91442 7.09948 -28.3255 -0.9759 2.2888 -4.16418 4.96853 26.7455 -22.1583 -0.53 10.8316 -9.84028 -9.23377 -3.40611 -0.786 0.112 2.5817 7.21037e-008 3.58203e-007 -2.19692e-007 -0.3601 -0.878 4.2331 1.44207e-007 7.16406e-007 -4.39385e-007 -1.8127 -1.216 2.2227 7.21037e-008 3.58203e-007 -2.19692e-007 -0.9571 1.114 1.7695 7.95139e-016 4.77083e-015 6.36111e-015 -4.1246 0.487 4.1451 7.21037e-008 3.58203e-007 -2.19692e-007 -3.4052 -1.454 2.7682 1.44207e-007 7.16406e-007 -4.39385e-007 -1.4531 -1.795 1.2713 7.21037e-008 3.58203e-007 -2.19692e-007 -5.6954 0.21 2.1184 7.21037e-008 3.58203e-007 -2.19692e-007 -3.9766 -1.54 2.3863 1.44207e-007 7.16406e-007 -4.39385e-007 -1.4042 -1.926 1.125 7.21037e-008 3.58203e-007 -2.19692e-007 -2.0956 0.66 -0.3894 7.95139e-016 4.77083e-015 6.36111e-015 -5.0395 -0.09 2.4971 7.21037e-008 3.58203e-007 -2.19692e-007 -3.7921 -1.552 1.4806 1.44207e-007 7.16406e-007 -4.39385e-007 -1.4655 -1.808 0.9609 7.21037e-008 3.58203e-007 -2.19692e-007 -4.9141 -1.269 0.3592 7.21037e-008 3.58203e-007 -2.19692e-007 -3.1477 -1.685 0.8462 1.44207e-007 7.16406e-007 -4.39385e-007 -0.8055 -1.585 0.7955 7.21037e-008 3.58203e-007 -2.19692e-007 8.367 -8.2066 0.5982 5.40984 -14.7198 8.31088 2.1923 -43.463 -0.4932 -0.305215 29.8261 0.650729 0.7333 -45.8593 -2.6451 -10.0061 -11.0513 7.46576 -8.367 -8.2066 0.5982 -1.35445 -14.8022 -3.62654 -2.1923 -43.463 -0.4931 -0.121631 30.1466 -0.293944 -0.7333 -45.8593 -2.6451 7.66724 -11.8123 -13.0852 
1.41298 88.8477 -16.8768 0 10.3457 -0 0 -1.186 -1.5018 -0.213167 3.40848 -0.387082 2.22045e-016 9.964 0.2134 -0.404291 6.8183 -0.763464 -1.11022e-016 13.134 -3.2573 -0.404291 6.8183 -0.763464 0 20.686 -1.6905 6.17298e-006 12.1502 3.39525e-007 0 7.238 -0.1237 1.15093e-008 8.50274 3.1155e-007 1.7069 20.075 5.0056 -9.63944 4.76385 -18.0315 13.6458 -0.047 -4.849 -55.3292 -4.97107 -6.34934 28.3255 -0.9759 2.2888 2.67007 5.78839 -27.7112 22.1583 -0.53 10.8316 9.87041 -9.26169 3.16841 0.786 0.112 2.5817 8.35384e-008 -3.45045e-007 -2.35587e-007 0.3601 -0.878 4.2331 1.67077e-007 -6.90089e-007 -4.71174e-007 1.8127 -1.216 2.2227 8.35384e-008 -3.45045e-007 -2.35587e-007 0.9571 1.114 1.7695 6.36111e-015 -3.18055e-015 1.59028e-015 4.1246 0.487 4.1451 8.35384e-008 -3.45045e-007 -2.35587e-007 3.4052 -1.454 2.7682 1.67077e-007 -6.90089e-007 -4.71174e-007 1.4531 -1.795 1.2713 8.35384e-008 -3.45045e-007 -2.35587e-007 5.6954 0.21 2.1184 8.35384e-008 -3.45045e-007 -2.35587e-007 3.9766 -1.54 2.3863 1.67077e-007 -6.90089e-007 -4.71174e-007 1.4042 -1.926 1.125 8.35384e-008 -3.45045e-007 -2.35587e-007 2.0956 0.66 -0.3894 6.36111e-015 -3.18055e-015 1.59028e-015 5.0395 -0.09 2.4971 8.35384e-008 -3.45045e-007 -2.35587e-007 3.7921 -1.552 1.4806 1.67077e-007 -6.90089e-007 -4.71174e-007 1.4655 -1.808 0.9609 8.35384e-008 -3.45045e-007 -2.35587e-007 4.9141 -1.269 0.3591 8.35384e-008 -3.45045e-007 -2.35587e-007 3.1477 -1.685 0.8462 1.67077e-007 -6.90089e-007 -4.71174e-007 0.8055 -1.585 0.7955 8.35384e-008 -3.45045e-007 -2.35587e-007 -1.7069 20.075 5.0056 9.38791 4.69885 17.81 -13.6458 -0.047 -4.849 55.4802 -4.94778 7.10076 -28.3255 -0.9759 2.2888 -4.16418 4.96853 26.7455 -22.1583 -0.53 10.8316 -9.84027 -9.23377 -3.40613 -0.786 0.112 2.5817 -7.24446e-008 -3.58081e-007 2.19728e-007 -0.3601 -0.878 4.2331 -3.92911e-007 6.83576e-007 3.52383e-006 -1.8127 -1.216 2.2227 -1.44889e-007 -7.16163e-007 4.39455e-007 -0.9571 1.114 1.7695 -4.37326e-015 0 1.59028e-015 -4.1246 0.487 4.1451 -7.24446e-008 -3.58081e-007 2.19728e-007 -3.4052 -1.454 2.7682 -3.92911e-007 6.83576e-007 3.52383e-006 -1.4531 -1.795 1.2713 -1.44889e-007 -7.16163e-007 4.39455e-007 -5.6954 0.21 2.1184 -7.24446e-008 -3.58081e-007 2.19728e-007 -3.9766 -1.54 2.3863 -3.92911e-007 6.83576e-007 3.52383e-006 -1.4042 -1.926 1.125 -1.44889e-007 -7.16163e-007 4.39455e-007 -2.0956 0.66 -0.3894 -4.37326e-015 0 1.59028e-015 -5.0395 -0.09 2.4971 -7.24446e-008 -3.58081e-007 2.19728e-007 -3.7921 -1.552 1.4806 -3.92911e-007 6.83576e-007 3.52383e-006 -1.4655 -1.808 0.9609 -1.44889e-007 -7.16163e-007 4.39455e-007 -4.9141 -1.269 0.3592 -7.24446e-008 -3.58081e-007 2.19728e-007 -3.1477 -1.685 0.8462 -3.92911e-007 6.83576e-007 3.52383e-006 -0.8055 -1.585 0.7955 -1.44889e-007 -7.16163e-007 4.39455e-007 8.367 -8.2066 0.5982 5.4161 -13.7777 8.28492 2.1923 -43.463 -0.4932 -0.387672 29.4795 0.67576 0.7333 -45.8593 -2.6451 -10.0065 -11.07 7.46385 -8.367 -8.2066 0.5982 -1.38544 -13.8594 -3.62513 -2.1923 -43.463 -0.4931 -0.0296331 29.7994 -0.325194 -0.7333 -45.8593 -2.6451 7.66774 -11.8313 -13.0837 
1.41313 88.8743 -16.6792 0 9.76888 -0 0 -1.186 -1.5018 -0.214091 3.62302 -0.386836 0 9.964 0.2134 -0.404829 7.24741 -0.762369 -2.22045e-016 13.134 -3.2573 -0.404828 7.24739 -0.762368 0 20.686 -1.6905 1.86694e-005 12.2095 -2.825e-006 0 7.238 -0.1237 5.3084e-007 8.54445 3.64921e-007 1.7069 20.075 5.0056 -9.64626 4.41189 -18.2488 13.6458 -0.047 -4.849 -55.2182 -5.00443 -6.35062 28.3255 -0.9759 2.2888 2.67006 5.7884 -27.7112 22.1583 -0.53 10.8316 9.87042 -9.26169 3.16842 0.786 0.112 2.5817 1.6773e-007 -6.89864e-007 -4.71162e-007 0.3601 -0.878 4.2331 -0 -3.18055e-015 -0 1.8127 -1.216 2.2227 1.6773e-007 -6.89864e-007 -4.71162e-007 0.9571 1.114 1.7695 4.77083e-015 -3.18055e-015 -0 4.1246 0.487 4.1451 1.6773e-007 -6.89864e-007 -4.71162e-007 3.4052 -1.454 2.7682 -2.38542e-015 0 -0 1.4531 -1.795 1.2713 1.6773e-007 -6.89864e-007 -4.71162e-007 5.6954 0.21 2.1184 1.6773e-007 -6.89864e-007 -4.71162e-007 3.9766 -1.54 2.3863 -2.38542e-015 0 -0 1.4042 -1.926 1.125 1.6773e-007 -6.89864e-007 -4.71162e-007 2.0956 0.66 -0.3894 4.77083e-015 -3.18055e-015 -0 5.0395 -0.09 2.4971 1.6773e-007 -6.89864e-007 -4.71162e-007 3.7921 -1.552 1.4806 -2.38542e-015 0 -0 1.4655 -1.808 0.9609 1.6773e-007 -6.89864e-007 -4.71162e-007 4.9141 -1.269 0.3591 1.6773e-007 -6.89864e-007 -4.71162e-007 3.1477 -1.685 0.8462 -2.38542e-015 0 -0 0.8055 -1.585 0.7955 1.6773e-007 -6.89864e-007 -4.71162e-007 -1.7069 20.075 5.0056 9.40805 4.34994 18.0387 -13.6458 -0.047 -4.849 55.3723 -4.98116 7.10198 -28.3255 -0.9759 2.2888 -4.16418 4.96853 26.7455 -22.1583 -0.53 10.8316 -9.84026 -9.23377 -3.40611 -0.786 0.112 2.5817 -2.52414e-007 1.40018e-006 3.08342e-006 -0.3601 -0.878 4.2331 -2.91141e-007 -1.43183e-006 8.79066e-007 -1.8127 -1.216 2.2227 1.79629e-007 -1.75813e-006 -2.86366e-006 -0.9571 1.114 1.7695 3.18055e-015 3.18055e-015 3.18055e-015 -4.1246 0.487 4.1451 -2.52414e-007 1.40018e-006 3.08342e-006 -3.4052 -1.454 2.7682 -2.91141e-007 -1.43183e-006 8.79066e-007 -1.4531 -1.795 1.2713 1.79629e-007 -1.75813e-006 -2.86366e-006 -5.6954 0.21 2.1184 -2.52414e-007 1.40018e-006 3.08342e-006 -3.9766 -1.54 2.3863 -2.91141e-007 -1.43183e-006 8.79066e-007 -1.4042 -1.926 1.125 1.79629e-007 -1.75813e-006 -2.86366e-006 -2.0956 0.66 -0.3894 3.18055e-015 3.18055e-015 3.18055e-015 -5.0395 -0.09 2.4971 -2.52414e-007 1.40018e-006 3.08342e-006 -3.7921 -1.552 1.4806 -2.91141e-007 -1.43183e-006 8.79066e-007 -1.4655 -1.808 0.9609 1.79629e-007 -1.75813e-006 -2.86366e-006 -4.9141 -1.269 0.3592 -2.52414e-007 1.40018e-006 3.08342e-006 -3.1477 -1.685 0.8462 -2.91141e-007 -1.43183e-006 8.79066e-007 -0.8055 -1.585 0.7955 1.79629e-007 -1.75813e-006 -2.86366e-006 8.367 -8.2066 0.5982 5.42267 -12.8354 8.25894 2.1923 -43.463 -0.4932 -0.469863 29.1322 0.700089 0.7333 -45.8593 -2.6451 -10.0068 -11.0887 7.46195 -8.367 -8.2066 0.5982 -1.41629 -12.9157 -3.62319 -2.1923 -43.463 -0.4931 0.0620792 29.4511 -0.355643 -0.7333 -45.8593 -2.6451 7.66816 -11.8504 -13.0822 
1.4133 88.9004 -16.4819 0 9.19215 -0 0 -1.186 -1.5018 -0.214994 3.83734 -0.386556 0 9.964 0.2134 -0.405337 7.67605 -0.761212 1.66533e-016 13.134 -3.2573 -0.405337 7.67605 -0.761213 -8.88178e-016 20.686 -1.6905 -1.66844e-005 12.2702 -6.25171e-006 0 7.238 -0.1237 -1.68675e-007 8.58618 -3.15566e-007 1.7069 20.075 5.0056 -9.6544 4.06 -18.466 13.6458 -0.047 -4.849 -55.1072 -5.03778 -6.35184 28.3255 -0.9759 2.2888 2.67006 5.78838 -27.7112 22.1583 -0.53 10.8316 9.87042 -9.26168 3.1684 0.786 0.112 2.5817 -7.49226e-006 -8.10283e-007 3.46618e-008 0.3601 -0.878 4.2331 -7.95139e-016 -3.18055e-015 -0 1.8127 -1.216 2.2227 1.68384e-007 -6.89635e-007 -4.71154e-007 0.9571 1.114 1.7695 4.77083e-015 -3.18055e-015 1.59028e-015 4.1246 0.487 4.1451 -7.49226e-006 -8.10283e-007 3.46618e-008 3.4052 -1.454 2.7682 1.59028e-015 -3.18055e-015 3.18055e-015 1.4531 -1.795 1.2713 1.68384e-007 -6.89635e-007 -4.71154e-007 5.6954 0.21 2.1184 -7.49226e-006 -8.10283e-007 3.46618e-008 3.9766 -1.54 2.3863 1.59028e-015 -3.18055e-015 3.18055e-015 1.4042 -1.926 1.125 1.68384e-007 -6.89635e-007 -4.71154e-007 2.0956 0.66 -0.3894 4.77083e-015 -3.18055e-015 1.59028e-015 5.0395 -0.09 2.4971 -7.49226e-006 -8.10283e-007 3.46618e-008 3.7921 -1.552 1.4806 1.59028e-015 -3.18055e-015 3.18055e-015 1.4655 -1.808 0.9609 1.68384e-007 -6.89635e-007 -4.71154e-007 4.9141 -1.269 0.3591 -7.49226e-006 -8.10283e-007 3.46618e-008 3.1477 -1.685 0.8462 1.59028e-015 -3.18055e-015 3.18055e-015 0.8055 -1.585 0.7955 1.68384e-007 -6.89635e-007 -4.71154e-007 -1.7069 20.075 5.0056 9.42958 4.00116 18.2674 -13.6458 -0.047 -4.849 55.2645 -5.01454 7.10313 -28.3255 -0.9759 2.2888 -4.16418 4.96853 26.7455 -22.1583 -0.53 10.8316 -9.84031 -9.23377 -3.40613 -0.786 0.112 2.5817 7.31263e-008 3.5783e-007 -2.19809e-007 -0.3601 -0.878 4.2331 -7.31263e-008 -3.5783e-007 2.19809e-007 -1.8127 -1.216 2.2227 7.31262e-008 3.5783e-007 -2.19809e-007 -0.9571 1.114 1.7695 6.75868e-015 -1.59028e-015 1.59028e-015 -4.1246 0.487 4.1451 7.31263e-008 3.5783e-007 -2.19809e-007 -3.4052 -1.454 2.7682 -7.31263e-008 -3.5783e-007 2.19809e-007 -1.4531 -1.795 1.2713 7.31263e-008 3.5783e-007 -2.19809e-007 -5.6954 0.21 2.1184 7.31263e-008 3.5783e-007 -2.19809e-007 -3.9766 -1.54 2.3863 -7.31263e-008 -3.5783e-007 2.19809e-007 -1.4042 -1.926 1.125 7.31263e-008 3.5783e-007 -2.19809e-007 -2.0956 0.66 -0.3894 6.75868e-015 -1.59028e-015 1.59028e-015 -5.0395 -0.09 2.4971 7.31263e-008 3.5783e-007 -2.19809e-007 -3.7921 -1.552 1.4806 -7.31263e-008 -3.5783e-007 2.19809e-007 -1.4655 -1.808 0.9609 7.31263e-008 3.5783e-007 -2.19809e-007 -4.9141 -1.269 0.3592 7.31263e-008 3.5783e-007 -2.19809e-007 -3.1477 -1.685 0.8462 -7.31263e-008 -3.5783e-007 2.19809e-007 -0.8055 -1.585 0.7955 7.31263e-008 3.5783e-007 -2.19809e-007 8.367 -8.2066 0.5982 5.42945 -11.894 8.23283 2.1923 -43.463 -0.4932 -0.551566 28.7857 0.723825 0.7333 -45.8593 -2.6451 -10.007 -11.1074 7.46003 -8.367 -8.2066 0.5982 -1.44684 -11.9731 -3.62061 -2.1923 -43.463 -0.4931 0.153258 29.1033 -0.385396 -0.7333 -45.8593 -2.6451 7.66854 -11.8693 -13.0807 
